<?xml version="1.0" encoding="iso-8859-1"?>
<!-- Generator: Adobe Illustrator 19.1.0, SVG Export Plug-In . SVG Version: 6.00 Build 0)  -->
<svg xmlns="http://www.w3.org/2000/svg" xmlns:xlink="http://www.w3.org/1999/xlink" version="1.1" id="Capa_1" x="0px" y="0px" viewBox="0 0 66.915 66.915" style="enable-background:new 0 0 66.915 66.915;" xml:space="preserve" width="512px" height="512px">
<g>
	<g>
		<path d="M27.724,34.113l14.037-15.487c0.742-0.818,0.68-2.083-0.139-2.824c-0.817-0.742-2.083-0.679-2.824,0.139L23.566,32.745    c-0.409,0.451-0.565,1.038-0.493,1.598c-0.016,0.564,0.196,1.131,0.647,1.539l16.802,15.231c0.383,0.348,0.864,0.519,1.344,0.519    c0.545,0,1.087-0.222,1.482-0.657c0.741-0.818,0.68-2.083-0.139-2.824L27.724,34.113z" fill="#FFFFFF"/>
		<path d="M66.915,33.457C66.915,15.009,51.905,0,33.457,0S0,15.009,0,33.457c0,18.449,15.009,33.458,33.457,33.458    S66.915,51.906,66.915,33.457z M33.457,62.915C17.214,62.915,4,49.7,4,33.457C4,17.215,17.214,4,33.457,4    s29.458,13.215,29.458,29.457C62.915,49.7,49.7,62.915,33.457,62.915z" fill="#FFFFFF"/>
	</g>
</g>
<g>
</g>
<g>
</g>
<g>
</g>
<g>
</g>
<g>
</g>
<g>
</g>
<g>
</g>
<g>
</g>
<g>
</g>
<g>
</g>
<g>
</g>
<g>
</g>
<g>
</g>
<g>
</g>
<g>
</g>
</svg>
